<svg xmlns="http://www.w3.org/2000/svg" viewBox="0 0 80 280" aria-hidden="true">
  <g fill="#A3495A">
    <path d="M 40 10 L 44 18 L 40 26 L 36 18 Z" opacity="0.7"/>
    <path d="M 20 50 L 23 56 L 20 62 L 17 56 Z" opacity="0.55"/>
    <path d="M 55 80 L 58 86 L 55 92 L 52 86 Z" opacity="0.65"/>
    <path d="M 35 120 L 38 126 L 35 132 L 32 126 Z" opacity="0.5"/>
    <path d="M 60 150 L 62 156 L 60 162 L 58 156 Z" opacity="0.7"/>
    <path d="M 25 175 L 28 181 L 25 187 L 22 181 Z" opacity="0.6"/>
    <path d="M 45 210 L 47 216 L 45 222 L 43 216 Z" opacity="0.55"/>
    <path d="M 30 250 L 32 256 L 30 262 L 28 256 Z" opacity="0.65"/>
  </g>
</svg>
